<svg viewBox="0 0 37.317 11.481" xmlns="http://www.w3.org/2000/svg">
    <path d="m116.764 99.431-4.727 11.217h1.143l4.727-11.217zm-19.624.73v9.006h1.254v-4.01h3.624v-1.027h-3.624v-2.921h3.824v-1.048zm8.771 0-.234 2.274h-1.543v.896h1.453l-.248 2.411h-1.557v.896h1.468l-.255 2.53h1.02l.255-2.53h1.757l-.255 2.53h1.02l.254-2.53h1.537v-.896h-1.447l.24-2.411h1.572v-.896h-1.481l.24-2.274h-1.019l-.234 2.274h-1.764l.227-2.274zm-12.368 1.385-4.63 3.866 4.63 3.865.752-.758-3.756-3.121 3.756-3.087zm27.644 0-.744.765 3.755 3.115-3.755 3.093.744.758 4.63-3.865zm-14.587 1.785h1.764l-.24 2.411h-1.765z"
          stroke="#000"
          stroke-width=".265" transform="translate(-88.707 -99.299)"/>
</svg>