<?xml version="1.0" encoding="UTF-8" standalone="no"?>
<!-- Created with Inkscape (http://www.inkscape.org/) -->

<svg
   width="32"
   height="32"
   viewBox="0 0 32 32"
   version="1.1"
   id="svg5"
   xmlns="http://www.w3.org/2000/svg"
   xmlns:svg="http://www.w3.org/2000/svg">
  <defs
     id="defs2" />
  <g
     id="layer1"
     transform="translate(-62.411104,-40.989211)">
    <path
       id="path15412"
       style="color:#000000;fill:#4b5563;stroke-linejoin:round"
       d="M 81.00876 43.053664 A 1.3758856 1.3758856 0 0 0 79.70212 44.028273 L 76.440401 54.684523 L 73.385713 48.709914 A 1.3758856 1.3758856 0 0 0 70.819307 49.03218 C 69.285037 55.769801 67.750062 62.507448 66.215791 69.24507 L 68.899385 69.856398 C 70.153326 64.349826 71.407163 58.843441 72.661104 53.336867 L 75.538057 58.959914 A 1.3758856 1.3758856 0 0 0 78.079073 58.737258 L 81.053682 49.016555 C 82.603363 53.82079 84.152439 58.62443 85.70212 63.428664 A 1.3758856 1.3758856 0 0 0 88.311495 63.454055 L 90.745088 56.37007 L 91.807588 56.735305 L 90.846651 51.834914 L 90.493135 52.141555 L 87.079073 55.112258 L 88.141573 55.477492 L 87.051729 58.653273 C 85.476979 53.77132 83.901869 48.888744 82.32712 44.006789 A 1.3758856 1.3758856 0 0 0 81.00876 43.053664 z " />
  </g>
</svg>
