<?xml version="1.0" encoding="UTF-8" standalone="no"?>
<svg
   xmlns:dc="http://purl.org/dc/elements/1.1/"
   xmlns:cc="http://creativecommons.org/ns#"
   xmlns:rdf="http://www.w3.org/1999/02/22-rdf-syntax-ns#"
   xmlns:svg="http://www.w3.org/2000/svg"
   xmlns="http://www.w3.org/2000/svg"
   xmlns:sodipodi="http://sodipodi.sourceforge.net/DTD/sodipodi-0.dtd"
   xmlns:inkscape="http://www.inkscape.org/namespaces/inkscape"
   width="150"
   height="150"
   viewBox="0 0 39.6875 39.687501"
   version="1.1"
   id="svg8"
   inkscape:version="1.0.1 (3bc2e813f5, 2020-09-07)"
   sodipodi:docname="acm.svg"
   inkscape:export-filename="C:\repos\github\ameier38\infrastructure\pulumi\etc\images\icon.png"
   inkscape:export-xdpi="96"
   inkscape:export-ydpi="96">
  <defs
     id="defs2" />
  <sodipodi:namedview
     id="base"
     pagecolor="#ffffff"
     bordercolor="#666666"
     borderopacity="1.0"
     inkscape:pageopacity="0.0"
     inkscape:pageshadow="2"
     inkscape:zoom="3.959798"
     inkscape:cx="67.59707"
     inkscape:cy="61.067917"
     inkscape:document-units="mm"
     inkscape:current-layer="layer1"
     showgrid="false"
     inkscape:window-width="1920"
     inkscape:window-height="1017"
     inkscape:window-x="1912"
     inkscape:window-y="-8"
     inkscape:window-maximized="1"
     fit-margin-top="10"
     fit-margin-left="10"
     fit-margin-right="10"
     fit-margin-bottom="10"
     inkscape:document-rotation="0"
     units="px"
     lock-margins="false" />
  <metadata
     id="metadata5">
    <rdf:RDF>
      <cc:Work
         rdf:about="">
        <dc:format>image/svg+xml</dc:format>
        <dc:type
           rdf:resource="http://purl.org/dc/dcmitype/StillImage" />
        <dc:title></dc:title>
      </cc:Work>
    </rdf:RDF>
  </metadata>
  <g
     inkscape:label="Layer 1"
     inkscape:groupmode="layer"
     id="layer1"
     transform="translate(-87.136286,-63.726527)">
    <g
       id="g24"
       transform="matrix(1.4385662,0,0,1.4385662,-45.719406,-24.847967)">
      <path
         d="m 101.35262,76.647725 v -2.389624 q 0,-0.491247 -0.19151,-0.924211 -0.18317,-0.44129 -0.5079,-0.766012 -0.32472,-0.324723 -0.766008,-0.507899 -0.432964,-0.191504 -0.924211,-0.191504 -0.491247,0 -0.932537,0.191504 -0.432962,0.183176 -0.757685,0.507899 -0.324722,0.324722 -0.516226,0.766012 -0.183176,0.432964 -0.183176,0.924211 v 2.389624 z m 2.38962,4.770925 h -2.38962 v -2.389625 h -4.779253 v 2.389625 h -2.381299 v -7.160549 q 0,-0.990821 0.37468,-1.856748 0.37468,-0.874252 1.015798,-1.523697 0.649445,-0.649445 1.515372,-1.024125 0.874254,-0.37468 1.865073,-0.37468 0.990821,0 1.856749,0.37468 0.87425,0.37468 1.5237,1.024125 0.64944,0.649445 1.02412,1.523697 0.37468,0.865927 0.37468,1.856748 z"
         style="font-style:normal;font-variant:normal;font-weight:normal;font-stretch:normal;font-size:10.5833px;line-height:1.25;font-family:Righteous;-inkscape-font-specification:Righteous;letter-spacing:0px;word-spacing:0px;fill:#000000;fill-opacity:1;stroke:none;stroke-width:0.426302"
         id="path3703" />
      <path
         d="m 118.10161,81.41865 h -2.38129 V 72.8926 q 0,-0.249786 -0.0999,-0.466268 -0.0915,-0.216481 -0.25812,-0.37468 -0.15822,-0.166523 -0.37467,-0.258111 -0.21649,-0.09158 -0.46627,-0.09158 -0.24979,0 -0.46628,0.09158 -0.21648,0.09158 -0.383,0.258111 -0.15822,0.158206 -0.24979,0.37468 -0.0915,0.216482 -0.0915,0.466268 v 8.52605 h -2.38962 V 72.8926 q 0,-0.249786 -0.0915,-0.466268 -0.0915,-0.216481 -0.25812,-0.37468 -0.15822,-0.166523 -0.37467,-0.258111 -0.21649,-0.09158 -0.46627,-0.09158 -0.24979,0 -0.46628,0.09158 -0.21648,0.09158 -0.383,0.258111 -0.15822,0.158206 -0.24979,0.37468 -0.0915,0.216482 -0.0915,0.466268 v 8.52605 h -2.38963 V 72.8926 q 0,-0.741033 0.27476,-1.390478 0.28309,-0.657772 0.76601,-1.140692 0.49125,-0.491247 1.14069,-0.766012 0.65778,-0.283092 1.39881,-0.283092 0.6661,0 1.28224,0.241461 0.61613,0.233134 1.10738,0.682749 0.49125,-0.449615 1.09906,-0.682749 0.61615,-0.241461 1.28225,-0.241461 0.74103,0 1.39046,0.283092 0.65779,0.274765 1.1407,0.766012 0.49125,0.48292 0.76601,1.140692 0.28309,0.649445 0.28309,1.390478 z"
         style="font-style:normal;font-variant:normal;font-weight:normal;font-stretch:normal;font-size:10.5833px;line-height:1.25;font-family:Righteous;-inkscape-font-specification:Righteous;letter-spacing:0px;word-spacing:0px;fill:#000000;fill-opacity:1;stroke:none;stroke-width:0.426302"
         id="path3707" />
    </g>
  </g>
</svg>
